<svg width="40" height="41" viewBox="0 0 40 41" fill="none" xmlns="http://www.w3.org/2000/svg">
<path d="M27.7782 14.2218C26.5801 13.0237 25.1541 12.1368 23.5982 11.5999C25.2646 10.4522 26.3594 8.53136 26.3594 6.35938C26.3594 2.85282 23.5066 0 20 0C16.4934 0 13.6406 2.85282 13.6406 6.35938C13.6406 8.53136 14.7354 10.4522 16.4019 11.5999C14.846 12.1368 13.4199 13.0237 12.2218 14.2218C10.1442 16.2995 9 19.0618 9 22H10.7188C10.7188 16.8823 14.8823 12.7188 20 12.7188C25.1177 12.7188 29.2812 16.8823 29.2812 22H31C31 19.0618 29.8558 16.2995 27.7782 14.2218ZM20 11C17.4412 11 15.3594 8.91825 15.3594 6.35938C15.3594 3.8005 17.4412 1.71875 20 1.71875C22.5588 1.71875 24.6406 3.8005 24.6406 6.35938C24.6406 8.91825 22.5588 11 20 11Z" fill="white"/>
<path d="M9.37405 32.471C9.94405 32.663 10.229 33.047 10.229 33.623C10.229 34.061 10.064 34.4 9.73405 34.64C9.40405 34.88 8.91205 35 8.25805 35H5.67505V30.158H8.15005C8.75605 30.158 9.23005 30.269 9.57205 30.491C9.91405 30.707 10.085 31.013 10.085 31.409C10.085 31.649 10.022 31.862 9.89605 32.048C9.77605 32.228 9.60205 32.369 9.37405 32.471ZM6.96205 32.147H8.02405C8.51605 32.147 8.76205 31.973 8.76205 31.625C8.76205 31.283 8.51605 31.112 8.02405 31.112H6.96205V32.147ZM8.14105 34.046C8.65705 34.046 8.91505 33.869 8.91505 33.515C8.91505 33.329 8.85505 33.194 8.73505 33.11C8.61505 33.02 8.42605 32.975 8.16805 32.975H6.96205V34.046H8.14105Z" fill="white"/>
<path d="M13.5417 35.072C13.0317 35.072 12.5727 34.967 12.1647 34.757C11.7627 34.541 11.4477 34.244 11.2197 33.866C10.9917 33.488 10.8777 33.059 10.8777 32.579C10.8777 32.099 10.9917 31.67 11.2197 31.292C11.4477 30.914 11.7627 30.62 12.1647 30.41C12.5727 30.194 13.0317 30.086 13.5417 30.086C14.0517 30.086 14.5077 30.194 14.9097 30.41C15.3117 30.62 15.6267 30.914 15.8547 31.292C16.0827 31.67 16.1967 32.099 16.1967 32.579C16.1967 33.059 16.0827 33.488 15.8547 33.866C15.6267 34.244 15.3117 34.541 14.9097 34.757C14.5077 34.967 14.0517 35.072 13.5417 35.072ZM13.5417 33.92C13.9017 33.92 14.1957 33.8 14.4237 33.56C14.6577 33.314 14.7747 32.987 14.7747 32.579C14.7747 32.171 14.6577 31.847 14.4237 31.607C14.1957 31.361 13.9017 31.238 13.5417 31.238C13.1817 31.238 12.8847 31.361 12.6507 31.607C12.4167 31.847 12.2997 32.171 12.2997 32.579C12.2997 32.987 12.4167 33.314 12.6507 33.56C12.8847 33.8 13.1817 33.92 13.5417 33.92Z" fill="white"/>
<path d="M17.1624 30.158H18.5574V33.038L20.9154 30.158H22.2024V35H20.8074V32.12L18.4584 35H17.1624V30.158ZM19.5924 29.636C18.5364 29.636 18.0054 29.171 17.9994 28.241H18.9174C18.9234 28.451 18.9804 28.616 19.0884 28.736C19.2024 28.85 19.3674 28.907 19.5834 28.907C19.7994 28.907 19.9644 28.85 20.0784 28.736C20.1984 28.616 20.2584 28.451 20.2584 28.241H21.1944C21.1884 29.171 20.6544 29.636 19.5924 29.636Z" fill="white"/>
<path d="M27.62 31.31H25.982V35H24.587V31.31H22.949V30.158H27.62V31.31Z" fill="white"/>
<path d="M28.3684 30.158H29.7634V33.038L32.1214 30.158H33.4084V35H32.0134V32.12L29.6644 35H28.3684V30.158Z" fill="white"/>
</svg>
